<svg xmlns="http://www.w3.org/2000/svg" xmlns:xlink="http://www.w3.org/1999/xlink" width="20" height="20" viewBox="0 0 20 20"><defs><style>.a{fill:url(#a);}</style><linearGradient id="a" x1="0.5" x2="0.5" y2="1" gradientUnits="objectBoundingBox"><stop offset="0" stop-color="#40e0d0"/><stop offset="0.492" stop-color="#ff8c00"/><stop offset="1" stop-color="#ff0080"/></linearGradient></defs><path class="a" d="M6.736,4.743,5.1,3.108,3.818,4.4,5.445,6.03ZM4.227,9.912H1.5v1.826H4.227ZM12.409.825H10.591V3.519h1.818V.825ZM19.182,4.4,17.9,3.108,16.273,4.743,17.555,6.03,19.182,4.4ZM16.264,16.907l1.627,1.644,1.282-1.288-1.636-1.635Zm2.509-7v1.826H21.5V9.912ZM11.5,5.346a5.48,5.48,0,1,0,5.455,5.479A5.471,5.471,0,0,0,11.5,5.346Zm-.909,15.479h1.818V18.131H10.591ZM3.818,17.254,5.1,18.542,6.727,16.9,5.445,15.61,3.818,17.254Z" transform="translate(-1.5 -0.825)"/></svg>