<svg xmlns="http://www.w3.org/2000/svg" xmlns:xlink="http://www.w3.org/1999/xlink" width="128.445" height="143.979" viewBox="0 0 128.445 143.979"><defs><style>.a{fill:#131419;}.b{fill:url(#e);}.c{filter:url(#c);}.d{filter:url(#a);}</style><filter id="a" x="7" y="7" width="121.445" height="136.979" filterUnits="userSpaceOnUse"><feOffset dx="4" dy="4" input="SourceAlpha"/><feGaussianBlur stdDeviation="4" result="b"/><feFlood flood-color="#08080b"/><feComposite operator="in" in2="b"/><feComposite in="SourceGraphic"/></filter><filter id="c" x="0" y="0" width="120.802" height="134.485" filterUnits="userSpaceOnUse"><feOffset dx="-4" dy="-4" input="SourceAlpha"/><feGaussianBlur stdDeviation="4" result="d"/><feFlood flood-color="#1e2028"/><feComposite operator="in" in2="d"/><feComposite in="SourceGraphic"/></filter><linearGradient id="e" x1="0.5" x2="0.5" y2="1" gradientUnits="objectBoundingBox"><stop offset="0" stop-color="#a6ffcb"/><stop offset="0.489" stop-color="#12d8fa"/><stop offset="1" stop-color="#1fa2ff"/></linearGradient></defs><g transform="translate(-116 -50)"><g transform="translate(20 -4)"><g class="d" transform="matrix(1, 0, 0, 1, 96, 54)"><path class="a" d="M80.125,0a8,8,0,0,1,6.921,3.988L110.653,44.71a8,8,0,0,1,0,8.024L87.046,93.457a8,8,0,0,1-6.921,3.988H32.854a8,8,0,0,1-6.921-3.988L2.326,52.735a8,8,0,0,1,0-8.024L25.933,3.988A8,8,0,0,1,32.854,0Z" transform="translate(112.44 15) rotate(90)"/></g><g class="c" transform="matrix(1, 0, 0, 1, 96, 54)"><path class="a" d="M80.068,0a5.612,5.612,0,0,1,4.855,2.8l24.805,42.789a5.612,5.612,0,0,1,0,5.629L84.923,94.005a5.612,5.612,0,0,1-4.855,2.8H30.417a5.612,5.612,0,0,1-4.855-2.8L.757,51.216a5.612,5.612,0,0,1,0-5.629L25.562,2.8A5.612,5.612,0,0,1,30.417,0Z" transform="translate(112.8 16) rotate(90)"/></g><path class="b" d="M0,31.5a2.25,2.25,0,0,0,2.25,2.25h40.5A2.25,2.25,0,0,0,45,31.5V9H0ZM31.5,16.875a1.125,1.125,0,0,1,1.125-1.125h6.75A1.125,1.125,0,0,1,40.5,16.875v2.25a1.125,1.125,0,0,1-1.125,1.125h-6.75A1.125,1.125,0,0,1,31.5,19.125Zm0,8.438a.562.562,0,0,1,.563-.562h7.875a.562.562,0,0,1,.563.563v1.125a.562.562,0,0,1-.562.563H32.063a.562.562,0,0,1-.562-.562Zm-27-6.75A.562.562,0,0,1,5.063,18H26.438a.562.562,0,0,1,.563.563v1.125a.562.562,0,0,1-.562.563H5.063a.562.562,0,0,1-.562-.562Zm0,6.75a.562.562,0,0,1,.563-.562H17.438a.562.562,0,0,1,.563.563v1.125a.562.562,0,0,1-.562.563H5.063a.562.562,0,0,1-.562-.562ZM43.875,2.25H1.125A1.125,1.125,0,0,0,0,3.375V6.75H45V3.375A1.125,1.125,0,0,0,43.875,2.25Z" transform="translate(137 107.773)"/></g></g></svg>